<?xml version="1.0" encoding="utf-8"?>
<!-- Generator: Adobe Illustrator 16.0.4, SVG Export Plug-In . SVG Version: 6.00 Build 0)  -->
<!DOCTYPE svg PUBLIC "-//W3C//DTD SVG 1.1//EN" "http://www.w3.org/Graphics/SVG/1.1/DTD/svg11.dtd">
<svg version="1.1" xmlns="http://www.w3.org/2000/svg" xmlns:xlink="http://www.w3.org/1999/xlink" x="0px" y="0px" width="432px"
	 height="216px" viewBox="0 0 432 216" enable-background="new 0 0 432 216" xml:space="preserve">
<g id="Background" display="none">
	
		<rect id="Background_1_" display="inline" stroke="#000000" stroke-linecap="round" stroke-miterlimit="10" width="432" height="216"/>
</g>
<g id="Text">
	<g>
		<path fill="#1DBBB6" d="M160.295,184.917c0.714,2.293,2.958,7.225,6.733,14.796c0.508,0.706,0.762,1.305,0.762,1.795
			c0,0.116-0.042,0.221-0.127,0.312c-0.085,0.092-0.396,0.212-0.935,0.361c-0.539,0.149-0.893,0.258-1.062,0.324
			c-0.134-0.149-0.201-0.295-0.201-0.436c0-0.125,0.018-0.267,0.054-0.424l0.067-0.188c0-0.273-0.146-0.839-0.436-1.694
			s-0.788-1.944-1.49-3.267c-0.072-0.033-0.145-0.126-0.221-0.28c-0.075-0.154-0.265-0.23-0.567-0.23
			c-0.169,0-0.334,0.079-0.494,0.236c-0.027-0.066-0.214-0.128-0.561-0.187l-0.4-0.1h-0.401c-0.909,0-1.539,0.048-1.89,0.143
			c-0.352,0.096-0.537,0.144-0.554,0.144c-0.125,0-0.223-0.062-0.294-0.187c-0.552,0.142-0.959,0.195-1.222,0.162
			s-0.523-0.05-0.781-0.05c-0.588,0-1.133,0.064-1.636,0.192c-0.503,0.129-0.828,0.195-0.975,0.2
			c-0.147,0.004-0.287,0.11-0.42,0.317l-0.187-0.125c-0.909,1.754-1.585,3.133-2.03,4.139c-0.053,0.623-0.194,1.153-0.421,1.589
			c-0.227,0.437-0.434,0.655-0.621,0.655h-0.027c-0.303-0.117-0.921-0.254-1.856-0.412c-0.143-0.024-0.214-0.1-0.214-0.224
			c0-0.274,0.156-0.53,0.467-0.767c0.312-0.237,0.49-0.418,0.535-0.543c0.294-0.515,0.561-0.872,0.801-1.071
			c0.321-0.357,0.725-0.945,1.21-1.764c0.486-0.817,0.885-1.368,1.197-1.65c0.009-0.366,0.435-1.15,1.277-2.355
			c0.843-1.204,1.571-2.334,2.187-3.389s0.958-1.624,1.03-1.707c1.233-1.655,1.849-2.782,1.849-3.381v-0.05
			c0.205,0,0.308-0.042,0.308-0.125v-0.125c0-0.308,0.218-0.64,0.654-0.997l0.187,0.074c0.231-0.274,0.414-0.411,0.548-0.411
			c0.16,0,0.241,0.112,0.241,0.336C160.376,184.688,160.349,184.81,160.295,184.917z M160.949,195.151
			c0.249-0.067,0.507-0.101,0.774-0.101c0.614-0.107,0.921-0.27,0.921-0.485c0-0.017-0.516-1.247-1.549-3.689
			c-1.032-2.443-1.708-3.665-2.029-3.665c-0.223,0-0.657,0.578-1.302,1.732c-0.646,1.155-1.37,2.342-2.171,3.559
			c-0.802,1.218-1.203,1.963-1.203,2.237c0,0.191,0.133,0.32,0.401,0.387c0.267,0.066,0.423,0.1,0.467,0.1l0.254-0.024
			c0.151,0,0.356,0.021,0.614,0.062c0.258,0.042,0.436,0.062,0.534,0.062c0.214,0,0.563-0.033,1.048-0.1s0.791-0.1,0.915-0.1
			s0.276,0.017,0.454,0.05s0.294,0.05,0.347,0.05c0.125,0,0.214-0.058,0.267-0.175c0.223,0.067,0.423,0.101,0.601,0.101l0.414-0.025
			C160.806,195.126,160.886,195.135,160.949,195.151z"/>
		<path fill="#1DBBB6" d="M191.649,202.954c0,0.207-0.156,0.312-0.468,0.312l-1.389-0.188c-1.861-0.183-3.108-0.328-3.74-0.437
			c-0.998-0.174-1.808-0.349-2.432-0.523c-0.864-0.249-1.661-0.568-2.391-0.959c-0.713-0.374-1.336-0.794-1.87-1.26
			c-0.499-0.456-0.94-0.976-1.323-1.558c-0.365-0.565-0.641-1.159-0.828-1.782c-0.187-0.632-0.281-1.305-0.281-2.02
			c0-0.839,0.27-1.893,0.809-3.16c0.539-1.267,0.899-2.059,1.082-2.374c0.182-0.315,0.641-0.822,1.376-1.521
			c0.734-0.698,1.73-1.33,2.985-1.895c0.445-0.199,0.668-0.35,0.668-0.449c0.231-0.091,0.552-0.139,0.962-0.144
			c0.41-0.004,0.782-0.066,1.116-0.187s0.875-0.181,1.623-0.181c0.338,0,0.643,0.027,0.915,0.081
			c0.271,0.054,0.628,0.108,1.069,0.162c0.44,0.054,0.779,0.1,1.015,0.137c0.236,0.038,0.438,0.092,0.608,0.162
			c0.169,0.071,0.253,0.152,0.253,0.243c0,0.116-0.093,0.433-0.28,0.947c-0.187,0.516-0.432,0.772-0.735,0.772
			c-0.16,0-0.334-0.054-0.521-0.161c-0.392-0.407-0.938-0.692-1.636-0.854c-0.699-0.162-1.169-0.243-1.41-0.243
			c-0.196,0-0.477,0.017-0.841,0.05l-0.788,0.05c-0.107,0.009-0.201,0.021-0.281,0.038c-0.205,0.017-0.352,0.05-0.441,0.1
			c-0.16,0.083-0.307,0.153-0.441,0.212c-0.133,0.058-0.258,0.1-0.374,0.124c-0.116,0.025-0.227,0.038-0.334,0.038h-0.133
			l-0.187,0.187c-0.259,0-0.486,0.092-0.682,0.274h-0.28c-2.333,2.235-3.5,4.566-3.5,6.992c0,1.413,0.463,2.72,1.389,3.921
			c0.926,1.2,2.184,2.104,3.774,2.711s3.217,0.909,4.883,0.909c0.303,0,0.788-0.054,1.456-0.161c0.668-0.108,1.002-0.225,1.002-0.35
			c0.401,0.009,0.601,0.652,0.601,1.933V202.954z"/>
		<path fill="#1DBBB6" d="M202.763,195.45c0,0.066-0.06,0.158-0.18,0.274s-0.203,0.22-0.247,0.312
			c-0.045,0.091-0.08,0.334-0.107,0.729c-0.027,0.396-0.04,0.979-0.04,1.752l0.053,1.683c0,0.092-0.04,0.17-0.12,0.236
			c-0.018,0.092-0.027,0.245-0.027,0.462c0,0.307,0.054,0.697,0.161,1.171l0.147,0.661l-0.027,0.61l0.027,0.536
			c-0.642,0.599-1.118,0.897-1.43,0.897c-0.044,0-0.129-0.029-0.254-0.087c-0.125-0.059-0.24-0.088-0.347-0.088h-0.08
			c-0.071-0.232-0.107-0.44-0.107-0.623c0-0.407,0.102-0.798,0.307-1.172c0.098-0.116,0.171-0.207,0.221-0.273
			c0.049-0.067,0.073-0.316,0.073-0.748c0-0.474-0.053-0.711-0.16-0.711c-0.018,0-0.074,0.017-0.167,0.05
			c-0.094,0.033-0.194,0.05-0.301,0.05h-0.107c-0.106,0.067-0.173,0.154-0.2,0.262c-0.107-0.008-0.69,0.179-1.75,0.562
			c-0.517,0.166-1.015,0.249-1.496,0.249c-0.526,0-0.998-0.064-1.416-0.193c-0.419-0.129-0.771-0.319-1.056-0.573
			c-0.285-0.253-0.47-0.442-0.554-0.567c-0.085-0.124-0.127-0.395-0.127-0.81l0.027-0.312v-0.101c0-0.83,0.692-1.703,2.077-2.617
			s2.679-1.467,3.881-1.657c0.32-0.051,0.57-0.103,0.748-0.156s0.327-0.144,0.448-0.268c0.12-0.125,0.18-0.412,0.18-0.86
			c0-1.479-0.837-2.484-2.512-3.017c-0.053-0.017-0.127-0.05-0.22-0.1c-0.094-0.05-0.176-0.075-0.247-0.075
			c-0.864,0-1.585,0.033-2.164,0.1c-0.321,0.341-0.677,0.512-1.069,0.512c-0.294,0-0.441-0.096-0.441-0.287
			c0-0.008,0.064-0.185,0.194-0.529c0.129-0.345,0.438-0.518,0.928-0.518c0.561-0.282,1.585-0.424,3.073-0.424
			c1.193,0,2.119,0.433,2.778,1.297s0.989,2.098,0.989,3.701v0.175c0.071,0.108,0.196,0.188,0.374,0.237s0.267,0.124,0.267,0.224
			V195.45z M200.132,199.875c0.561-0.706,0.841-1.338,0.841-1.895c0-0.341-0.091-0.711-0.274-1.109
			c-0.183-0.399-0.545-0.599-1.088-0.599c-1.051,0-1.906,0.245-2.565,0.735h-0.334c-1.372,0.707-2.058,1.454-2.058,2.244
			c0,0.557,0.283,1.024,0.849,1.402c0.565,0.378,1.222,0.566,1.97,0.566c0.196,0,0.57-0.078,1.122-0.236s1.064-0.453,1.537-0.885
			V199.875z"/>
		<path fill="#1DBBB6" d="M208.775,191.374c1.639-0.549,2.716-0.868,3.233-0.96c0.517-0.091,0.824-0.137,0.922-0.137
			c0.267,0,0.83,0.149,1.69,0.448c0.859,0.3,1.338,0.516,1.436,0.648c0.036,0.059,0.209,0.278,0.521,0.661
			c0.561,0.523,0.841,1.305,0.841,2.343c0,0.864-0.263,1.762-0.788,2.692s-1.153,1.6-1.883,2.007
			c-0.107,0.125-0.174,0.237-0.201,0.337c-1.078,0.831-1.776,1.316-2.097,1.458l-0.361,0.149c-0.401,0.374-0.681,0.562-0.841,0.562
			c-0.081,0-0.138-0.009-0.174-0.025c-0.437,0.274-0.755,0.47-0.955,0.586c-0.201,0.116-0.474,0.201-0.822,0.256
			c-0.347,0.054-0.563,0.104-0.648,0.149c-0.084,0.045-0.153,0.203-0.207,0.474c-0.053,0.27-0.08,0.675-0.08,1.215
			c0,1.014,0.036,1.918,0.107,2.711c0.071,0.794,0.127,1.249,0.167,1.365s0.096,0.223,0.167,0.317
			c0.071,0.096,0.107,0.16,0.107,0.193c0,0.066-0.042,0.127-0.127,0.181c-0.085,0.055-0.176,0.11-0.274,0.169
			c-0.098,0.058-0.165,0.087-0.2,0.087c-0.018,0-0.036-0.017-0.054-0.05c-0.418,0.175-0.775,0.262-1.069,0.262
			c-0.106,0-0.233-0.046-0.38-0.137c-0.147-0.092-0.221-0.208-0.221-0.35c0-0.191,0.06-0.438,0.181-0.741
			c0.12-0.304,0.18-0.525,0.18-0.667l-0.027-0.461l0.107-3.44c0-0.532-0.024-0.912-0.073-1.141c-0.049-0.229-0.181-0.455-0.394-0.68
			l0.12-0.586l-0.04-0.1c0-0.083,0.064-0.197,0.193-0.343c0.129-0.145,0.194-0.363,0.194-0.654l-0.027-0.686v-0.262
			c0.071-0.199,0.107-0.461,0.107-0.785v-1.583c0-0.157,0.014-0.395,0.04-0.71c0.027-0.316,0.04-0.557,0.04-0.724
			c0-0.839-0.026-1.397-0.08-1.676c-0.053-0.278-0.16-0.418-0.32-0.418c-0.08,0-0.218,0.031-0.414,0.094
			c-0.196,0.062-0.352,0.093-0.468,0.093l-0.107-0.024l-0.307-0.312c0.125-0.166,0.425-0.355,0.902-0.567
			c0.476-0.212,0.714-0.43,0.714-0.654c0-0.05-0.013-0.142-0.04-0.274c-0.026-0.133-0.04-0.245-0.04-0.336l0.027-0.188
			c0-0.066-0.071-0.183-0.214-0.349l-0.053-0.486c0-0.315,0.071-0.532,0.213-0.648s0.345-0.207,0.608-0.274
			c0.263-0.066,0.434-0.124,0.515-0.174h0.414c0.214,0,0.32,0.083,0.32,0.249l-0.106,0.398c-0.072,0.291-0.107,0.499-0.107,0.624
			l0.026,0.312l-0.053,0.424C208.615,191.304,208.668,191.35,208.775,191.374z M208.855,200.647c0.445,0.158,0.895,0.237,1.35,0.237
			c0.231,0,0.438-0.017,0.621-0.05c0.182-0.033,0.499-0.177,0.948-0.431s0.991-0.589,1.623-1.005
			c0.232-0.149,0.452-0.316,0.662-0.499c0.209-0.184,0.532-0.62,0.968-1.311c0.196-0.316,0.37-0.747,0.521-1.292
			s0.227-0.979,0.227-1.305c0-0.274-0.084-0.694-0.253-1.261c-0.169-0.565-0.479-1.033-0.929-1.403s-0.755-0.556-0.915-0.556h-0.08
			c-0.232,0-0.441-0.075-0.628-0.225h-0.521l-0.908-0.025c-1.069,0-1.846,0.165-2.332,0.493c-0.485,0.329-0.728,0.93-0.728,1.804
			l0.027,1.099l-0.08,5.342c0,0.117,0.067,0.196,0.2,0.237C208.762,200.54,208.837,200.59,208.855,200.647z"/>
		<path fill="#1DBBB6" d="M222.455,191.374c1.638-0.549,2.716-0.868,3.232-0.96c0.517-0.091,0.823-0.137,0.922-0.137
			c0.268,0,0.83,0.149,1.689,0.448c0.859,0.3,1.338,0.516,1.437,0.648c0.035,0.059,0.209,0.278,0.521,0.661
			c0.562,0.523,0.842,1.305,0.842,2.343c0,0.864-0.263,1.762-0.788,2.692s-1.153,1.6-1.884,2.007
			c-0.106,0.125-0.173,0.237-0.2,0.337c-1.077,0.831-1.776,1.316-2.098,1.458l-0.36,0.149c-0.4,0.374-0.682,0.562-0.842,0.562
			c-0.08,0-0.138-0.009-0.174-0.025c-0.436,0.274-0.754,0.47-0.955,0.586c-0.2,0.116-0.474,0.201-0.821,0.256
			c-0.348,0.054-0.563,0.104-0.647,0.149c-0.085,0.045-0.154,0.203-0.207,0.474c-0.054,0.27-0.08,0.675-0.08,1.215
			c0,1.014,0.035,1.918,0.106,2.711c0.071,0.794,0.127,1.249,0.167,1.365s0.096,0.223,0.167,0.317
			c0.071,0.096,0.106,0.16,0.106,0.193c0,0.066-0.042,0.127-0.127,0.181c-0.084,0.055-0.176,0.11-0.273,0.169
			c-0.098,0.058-0.165,0.087-0.2,0.087c-0.019,0-0.036-0.017-0.054-0.05c-0.419,0.175-0.774,0.262-1.068,0.262
			c-0.107,0-0.234-0.046-0.381-0.137c-0.147-0.092-0.221-0.208-0.221-0.35c0-0.191,0.061-0.438,0.181-0.741
			c0.12-0.304,0.181-0.525,0.181-0.667l-0.027-0.461l0.107-3.44c0-0.532-0.025-0.912-0.074-1.141s-0.18-0.455-0.394-0.68l0.12-0.586
			l-0.04-0.1c0-0.083,0.064-0.197,0.193-0.343c0.129-0.145,0.194-0.363,0.194-0.654l-0.027-0.686v-0.262
			c0.071-0.199,0.107-0.461,0.107-0.785v-1.583c0-0.157,0.013-0.395,0.04-0.71c0.026-0.316,0.04-0.557,0.04-0.724
			c0-0.839-0.027-1.397-0.08-1.676c-0.054-0.278-0.16-0.418-0.321-0.418c-0.08,0-0.218,0.031-0.414,0.094
			c-0.195,0.062-0.352,0.093-0.467,0.093l-0.107-0.024l-0.308-0.312c0.125-0.166,0.426-0.355,0.902-0.567s0.715-0.43,0.715-0.654
			c0-0.05-0.014-0.142-0.04-0.274c-0.027-0.133-0.04-0.245-0.04-0.336l0.026-0.188c0-0.066-0.071-0.183-0.214-0.349l-0.054-0.486
			c0-0.315,0.071-0.532,0.214-0.648s0.346-0.207,0.608-0.274c0.263-0.066,0.434-0.124,0.514-0.174h0.414
			c0.214,0,0.321,0.083,0.321,0.249l-0.107,0.398c-0.071,0.291-0.106,0.499-0.106,0.624l0.026,0.312l-0.054,0.424
			C222.294,191.304,222.348,191.35,222.455,191.374z M222.535,200.647c0.445,0.158,0.895,0.237,1.349,0.237
			c0.231,0,0.438-0.017,0.621-0.05s0.499-0.177,0.949-0.431c0.449-0.254,0.99-0.589,1.623-1.005
			c0.231-0.149,0.451-0.316,0.661-0.499c0.209-0.184,0.532-0.62,0.969-1.311c0.195-0.316,0.369-0.747,0.521-1.292
			s0.228-0.979,0.228-1.305c0-0.274-0.085-0.694-0.254-1.261c-0.17-0.565-0.479-1.033-0.929-1.403
			c-0.45-0.37-0.755-0.556-0.915-0.556h-0.08c-0.231,0-0.441-0.075-0.628-0.225h-0.521l-0.908-0.025
			c-1.068,0-1.846,0.165-2.331,0.493c-0.485,0.329-0.728,0.93-0.728,1.804l0.026,1.099l-0.08,5.342c0,0.117,0.066,0.196,0.2,0.237
			C222.441,200.54,222.517,200.59,222.535,200.647z"/>
		<path fill="#1DBBB6" d="M243.469,194.229c0.071,0.066,0.106,0.162,0.106,0.287c0,0.24-0.071,0.419-0.214,0.535
			c0.018,0.009,0.027,0.033,0.027,0.075c0,0.133-0.192,0.199-0.575,0.199h-0.187c-0.054,0-0.107,0.029-0.16,0.088
			c-0.054,0.058-0.094,0.087-0.12,0.087c-0.01,0-0.052-0.025-0.127-0.075c-0.076-0.05-0.189-0.083-0.341-0.1l-0.16-0.149
			c-0.196,0.05-0.388,0.075-0.575,0.075c-0.143,0-0.34-0.017-0.594-0.05s-0.439-0.05-0.555-0.05c-0.098,0-0.306,0.024-0.621,0.074
			c-0.316,0.05-0.595,0.075-0.835,0.075l-1.31-0.05c-0.703,0-1.34,0.058-1.91,0.174c-0.08,0.042-0.198,0.073-0.354,0.094
			c-0.156,0.021-0.241,0.087-0.254,0.199c-0.014,0.112-0.105,0.202-0.274,0.269c-0.089,0.341-0.133,0.647-0.133,0.922
			c0,0.217,0.066,0.628,0.2,1.234s0.312,1.039,0.534,1.296c0.054,0.059,0.437,0.324,1.148,0.798
			c0.454,0.316,0.946,0.555,1.477,0.717c0.529,0.162,1.143,0.243,1.837,0.243c0.275,0,0.619-0.021,1.028-0.062l0.562-0.062h0.868
			c0.089,0,0.256-0.074,0.501-0.224c0.245-0.15,0.492-0.237,0.741-0.263c0.107,0.233,0.16,0.437,0.16,0.611
			c0,0.391-0.127,0.731-0.381,1.022c-0.254,0.29-0.545,0.436-0.875,0.436l-0.28-0.05l-0.842,0.025h-0.721
			c-0.339,0-1.172-0.133-2.498-0.399c-1.327-0.266-2.308-0.614-2.939-1.047c-0.633-0.432-1.096-0.991-1.39-1.677
			s-0.44-1.348-0.44-1.987c0-0.864,0.178-1.743,0.534-2.637s0.762-1.587,1.216-2.081c0.454-0.495,1.145-1.008,2.07-1.54
			c0.089-0.041,0.225-0.126,0.407-0.255s0.358-0.193,0.528-0.193l0.44,0.024c0.188-0.116,0.523-0.214,1.009-0.293
			c0.485-0.078,0.88-0.118,1.183-0.118c0.543,0,1.138,0.188,1.783,0.561c0.646,0.374,1.035,1.155,1.169,2.344
			c0.026,0.208,0.064,0.376,0.113,0.505s0.073,0.201,0.073,0.218C243.521,194.104,243.504,194.162,243.469,194.229z
			 M237.991,191.499c-0.054,0.074-0.308,0.212-0.762,0.411c-0.223,0.149-0.437,0.32-0.641,0.511
			c-0.205,0.191-0.405,0.397-0.602,0.617c-0.196,0.221-0.367,0.418-0.515,0.592c-0.146,0.175-0.26,0.306-0.34,0.393
			c-0.08,0.088-0.12,0.165-0.12,0.231c0,0.091,0.062,0.157,0.187,0.199l0.174,0.062h0.988l4.649-0.162
			c0.597,0,0.895-0.245,0.895-0.735c0-0.516-0.109-0.967-0.327-1.353c-0.219-0.387-0.79-0.692-1.717-0.916
			c-0.106,0-0.258-0.009-0.454-0.025s-0.339-0.024-0.428-0.024C238.899,191.3,238.57,191.366,237.991,191.499z"/>
		<path fill="#1DBBB6" d="M249.373,201.482c-0.08,0.258-0.149,0.42-0.207,0.486s-0.198,0.108-0.421,0.125
			c-0.106,0.1-0.205,0.149-0.294,0.149c-0.071,0-0.146-0.05-0.227-0.149c-0.116,0.107-0.268,0.199-0.455,0.274
			c-0.694-0.183-1.042-0.42-1.042-0.711v-0.024c0.143,0,0.214-0.121,0.214-0.362v-0.224l-0.026-0.411
			c0-0.059,0.054-0.254,0.16-0.586c0.134-0.881,0.2-2.073,0.2-3.578v-2.555l-0.026-0.96l0.026-0.822l-0.16-2.88l0.107-1.994
			l-0.107-2.58v-0.486c-0.115-0.282-0.174-0.561-0.174-0.835l0.054-0.536c0-0.058-0.036-0.137-0.106-0.236
			c0-0.449,0.077-0.805,0.233-1.066c0.155-0.262,0.348-0.463,0.574-0.604c0.228-0.141,0.452-0.212,0.675-0.212
			c0.383,0,0.717,0.35,1.002,1.048c-0.205,0.24-0.37,0.479-0.494,0.716c-0.125,0.237-0.188,0.584-0.188,1.041l0.054,1.434
			l-0.054,3.564l0.027,4.874l-0.054,5.547l0.026,0.225c0,0.133-0.035,0.22-0.106,0.262c0.134,0.107,0.221,0.363,0.261,0.767
			c0.04,0.402,0.129,0.704,0.267,0.903C249.251,201.283,249.337,201.416,249.373,201.482z"/>
		<path fill="#1DBBB6" d="M256.399,201.482c-0.08,0.258-0.149,0.42-0.207,0.486s-0.198,0.108-0.421,0.125
			c-0.106,0.1-0.205,0.149-0.294,0.149c-0.071,0-0.146-0.05-0.227-0.149c-0.116,0.107-0.268,0.199-0.455,0.274
			c-0.694-0.183-1.042-0.42-1.042-0.711v-0.024c0.143,0,0.214-0.121,0.214-0.362v-0.224l-0.026-0.411
			c0-0.059,0.054-0.254,0.16-0.586c0.134-0.881,0.2-2.073,0.2-3.578v-2.555l-0.026-0.96l0.026-0.822l-0.16-2.88l0.107-1.994
			l-0.107-2.58v-0.486c-0.115-0.282-0.174-0.561-0.174-0.835l0.054-0.536c0-0.058-0.036-0.137-0.106-0.236
			c0-0.449,0.077-0.805,0.233-1.066c0.155-0.262,0.348-0.463,0.574-0.604c0.228-0.141,0.452-0.212,0.675-0.212
			c0.383,0,0.717,0.35,1.002,1.048c-0.205,0.24-0.37,0.479-0.494,0.716c-0.125,0.237-0.188,0.584-0.188,1.041l0.054,1.434
			l-0.054,3.564l0.027,4.874l-0.054,5.547l0.026,0.225c0,0.133-0.035,0.22-0.106,0.262c0.134,0.107,0.221,0.363,0.261,0.767
			c0.04,0.402,0.129,0.704,0.267,0.903C256.277,201.283,256.363,201.416,256.399,201.482z"/>
		<path fill="#1DBBB6" d="M268.609,195.45c0,0.066-0.061,0.158-0.181,0.274s-0.203,0.22-0.247,0.312
			c-0.045,0.091-0.08,0.334-0.107,0.729c-0.026,0.396-0.04,0.979-0.04,1.752l0.054,1.683c0,0.092-0.04,0.17-0.12,0.236
			c-0.018,0.092-0.026,0.245-0.026,0.462c0,0.307,0.053,0.697,0.16,1.171l0.146,0.661l-0.026,0.61l0.026,0.536
			c-0.641,0.599-1.117,0.897-1.429,0.897c-0.045,0-0.13-0.029-0.254-0.087c-0.125-0.059-0.241-0.088-0.348-0.088h-0.08
			c-0.071-0.232-0.107-0.44-0.107-0.623c0-0.407,0.103-0.798,0.308-1.172c0.098-0.116,0.172-0.207,0.221-0.273
			c0.049-0.067,0.073-0.316,0.073-0.748c0-0.474-0.054-0.711-0.16-0.711c-0.018,0-0.073,0.017-0.167,0.05s-0.193,0.05-0.301,0.05
			h-0.106c-0.107,0.067-0.174,0.154-0.2,0.262c-0.107-0.008-0.69,0.179-1.751,0.562c-0.517,0.166-1.015,0.249-1.496,0.249
			c-0.525,0-0.997-0.064-1.416-0.193c-0.418-0.129-0.771-0.319-1.055-0.573c-0.285-0.253-0.47-0.442-0.555-0.567
			c-0.085-0.124-0.127-0.395-0.127-0.81l0.026-0.312v-0.101c0-0.83,0.692-1.703,2.078-2.617c1.385-0.914,2.678-1.467,3.88-1.657
			c0.321-0.051,0.57-0.103,0.748-0.156c0.179-0.054,0.328-0.144,0.448-0.268c0.12-0.125,0.18-0.412,0.18-0.86
			c0-1.479-0.837-2.484-2.511-3.017c-0.054-0.017-0.127-0.05-0.221-0.1s-0.176-0.075-0.247-0.075c-0.864,0-1.585,0.033-2.164,0.1
			c-0.32,0.341-0.677,0.512-1.069,0.512c-0.293,0-0.44-0.096-0.44-0.287c0-0.008,0.064-0.185,0.193-0.529s0.438-0.518,0.929-0.518
			c0.562-0.282,1.585-0.424,3.072-0.424c1.193,0,2.12,0.433,2.779,1.297s0.988,2.098,0.988,3.701v0.175
			c0.071,0.108,0.196,0.188,0.374,0.237s0.268,0.124,0.268,0.224V195.45z M265.978,199.875c0.561-0.706,0.842-1.338,0.842-1.895
			c0-0.341-0.092-0.711-0.274-1.109c-0.183-0.399-0.546-0.599-1.089-0.599c-1.051,0-1.905,0.245-2.564,0.735h-0.334
			c-1.372,0.707-2.058,1.454-2.058,2.244c0,0.557,0.283,1.024,0.849,1.402s1.222,0.566,1.971,0.566c0.195,0,0.569-0.078,1.122-0.236
			c0.552-0.158,1.063-0.453,1.536-0.885V199.875z"/>
	</g>
	<g>
		<path fill="#1DBBB6" d="M237.228,177.771c0,0.769-0.551,1.153-1.651,1.153l-4.905-0.692c-6.573-0.677-10.976-1.215-13.208-1.614
			c-3.522-0.646-6.384-1.292-8.585-1.938c-3.051-0.923-5.865-2.107-8.443-3.553c-2.517-1.385-4.717-2.938-6.604-4.66
			c-1.762-1.691-3.318-3.614-4.67-5.768c-1.29-2.091-2.264-4.291-2.925-6.598c-0.66-2.337-0.99-4.828-0.99-7.474
			c0-3.106,0.951-7.006,2.854-11.696c1.902-4.69,3.176-7.62,3.821-8.789c0.645-1.169,2.264-3.046,4.859-5.629
			c2.594-2.584,6.108-4.921,10.542-7.013c1.572-0.738,2.358-1.292,2.358-1.661c0.817-0.339,1.95-0.515,3.396-0.531
			c1.446-0.015,2.759-0.245,3.938-0.691c1.18-0.446,3.09-0.669,5.731-0.669c1.195,0,2.271,0.1,3.231,0.3
			c0.959,0.2,2.217,0.399,3.773,0.6s2.751,0.369,3.585,0.508c0.833,0.138,1.549,0.339,2.146,0.6
			c0.597,0.262,0.896,0.562,0.896,0.899c0,0.432-0.33,1.6-0.991,3.507c-0.66,1.907-1.525,2.86-2.594,2.86
			c-0.566,0-1.18-0.2-1.84-0.6c-1.385-1.507-3.311-2.561-5.778-3.161c-2.47-0.6-4.128-0.899-4.977-0.899
			c-0.692,0-1.683,0.062-2.972,0.185l-2.783,0.185c-0.377,0.031-0.708,0.077-0.991,0.139c-0.724,0.062-1.243,0.185-1.557,0.369
			c-0.566,0.308-1.085,0.569-1.557,0.784c-0.472,0.216-0.913,0.369-1.321,0.461c-0.409,0.093-0.802,0.139-1.179,0.139h-0.472
			l-0.661,0.692c-0.913,0-1.714,0.339-2.406,1.015h-0.99c-8.24,8.274-12.359,16.902-12.359,25.884c0,5.229,1.635,10.065,4.906,14.51
			c3.27,4.445,7.712,7.79,13.326,10.035c5.613,2.246,11.36,3.368,17.241,3.368c1.068,0,2.783-0.199,5.142-0.6
			c2.358-0.399,3.537-0.831,3.537-1.292c1.416,0.031,2.123,2.415,2.123,7.151V177.771z"/>
		<path fill="#1DBBB6" d="M274.21,139.246c0,0.309-0.221,0.823-0.661,1.546s-0.739,1.4-0.896,2.03
			c-0.158,0.631-0.566,1.269-1.227,1.914h-1.18c-1.636-0.952-2.847-1.43-3.632-1.43c-0.566,0-1.494,0.323-2.783,0.969
			c-1.29,0.646-2.531,1.792-3.727,3.438s-1.966,2.945-2.312,3.898c-0.157,1.046-0.66,2.153-1.509,3.322v1.522
			c-0.599,1.507-0.85,2.606-0.755,3.299c0.094,0.691,0.142,1.223,0.142,1.592c0,0.399-0.032,0.723-0.095,0.969
			c-0.377,0.369-0.566,0.738-0.566,1.107c0,0.769,0.165,2.122,0.496,4.06c0.33,1.938,0.872,3.414,1.627,4.43v0.415
			c0,1.384-0.582,2.076-1.745,2.076l-0.943,0.923c-0.787,0.062-1.636,0.092-2.548,0.092c-1.163,0-2.186-0.154-3.065-0.461v-0.185
			c0-0.83,0.259-2.045,0.778-3.645c0.519-1.6,0.778-2.814,0.778-3.646l0.282-10.842c0-8.428-0.472-15.855-1.415-22.285
			c-0.094-0.676-0.142-1.061-0.142-1.153c0-1.168,0.574-2.061,1.723-2.676c1.147-0.615,2.146-0.923,2.995-0.923
			c0.755,0,1.462,0.185,2.122,0.554c0.063,0.123,0.181,0.339,0.354,0.646c0.172,0.309,0.259,0.508,0.259,0.601v0.554
			c0,0.461-0.275,1.492-0.825,3.091c-0.551,1.6-0.825,3.63-0.825,6.09l0.094,5.675v0.831c0,0.461,0.425,0.784,1.274,0.969
			c1.32-2.86,2.9-5.113,4.74-6.759s4.111-2.838,6.816-3.576c2.704-0.738,4.418-1.107,5.142-1.107
			c0.817,0.554,1.227,1.062,1.227,1.522V139.246z"/>
		<path fill="#1DBBB6" d="M314.588,145.475c0.252,0.247,0.378,0.601,0.378,1.062c0,0.893-0.252,1.554-0.755,1.984
			c0.062,0.03,0.094,0.123,0.094,0.276c0,0.492-0.676,0.738-2.028,0.738h-0.66c-0.188,0-0.377,0.108-0.565,0.323
			c-0.189,0.215-0.331,0.322-0.425,0.322c-0.032,0-0.182-0.092-0.448-0.276c-0.268-0.185-0.669-0.308-1.203-0.369l-0.565-0.554
			c-0.692,0.185-1.368,0.276-2.028,0.276c-0.504,0-1.203-0.061-2.1-0.185c-0.896-0.122-1.549-0.184-1.957-0.184
			c-0.347,0-1.078,0.092-2.194,0.276s-2.099,0.276-2.947,0.276l-4.623-0.185c-2.484,0-4.733,0.216-6.745,0.646
			c-0.283,0.154-0.7,0.27-1.251,0.346c-0.55,0.077-0.849,0.323-0.896,0.738c-0.048,0.415-0.37,0.746-0.967,0.992
			c-0.315,1.262-0.473,2.399-0.473,3.414c0,0.8,0.236,2.323,0.708,4.567c0.472,2.246,1.101,3.846,1.887,4.799
			c0.188,0.216,1.541,1.199,4.057,2.953c1.604,1.169,3.341,2.053,5.213,2.652c1.87,0.6,4.033,0.899,6.485,0.899
			c0.975,0,2.186-0.076,3.633-0.23l1.98-0.23h3.066c0.314,0,0.903-0.277,1.769-0.83c0.865-0.554,1.737-0.877,2.618-0.97
			c0.378,0.862,0.566,1.615,0.566,2.261c0,1.446-0.448,2.707-1.345,3.783c-0.896,1.077-1.927,1.615-3.09,1.615l-0.99-0.185
			l-2.972,0.093h-2.547c-1.196,0-4.136-0.493-8.821-1.477c-4.687-0.984-8.146-2.276-10.378-3.876
			c-2.233-1.599-3.868-3.668-4.905-6.205c-1.038-2.538-1.557-4.99-1.557-7.359c0-3.198,0.629-6.451,1.887-9.758
			s2.688-5.875,4.292-7.705c1.604-1.83,4.041-3.729,7.312-5.698c0.314-0.153,0.794-0.469,1.439-0.945
			c0.644-0.477,1.266-0.716,1.863-0.716l1.557,0.093c0.66-0.431,1.847-0.792,3.562-1.085c1.713-0.292,3.104-0.438,4.174-0.438
			c1.918,0,4.018,0.691,6.298,2.076c2.279,1.384,3.655,4.275,4.127,8.674c0.095,0.769,0.228,1.392,0.401,1.868
			c0.172,0.478,0.26,0.746,0.26,0.808C314.777,145.014,314.714,145.229,314.588,145.475z M295.248,135.371
			c-0.188,0.276-1.085,0.784-2.688,1.522c-0.786,0.554-1.541,1.185-2.265,1.892c-0.724,0.708-1.431,1.469-2.122,2.283
			c-0.692,0.815-1.298,1.546-1.816,2.192c-0.519,0.646-0.92,1.13-1.203,1.453s-0.424,0.607-0.424,0.854
			c0,0.339,0.219,0.585,0.66,0.738l0.613,0.23h3.49l16.416-0.6c2.106,0,3.16-0.907,3.16-2.723c0-1.906-0.386-3.575-1.156-5.006
			c-0.771-1.43-2.791-2.561-6.061-3.391c-0.378,0-0.913-0.03-1.604-0.093c-0.691-0.061-1.195-0.092-1.509-0.092
			C298.456,134.633,297.292,134.879,295.248,135.371z"/>
		<path fill="#1DBBB6" d="M362.043,180.725l-4.246,5.767h-1.273c-0.566-0.369-1.085-0.554-1.557-0.554
			c-0.409-0.861-0.818-2.092-1.227-3.69c0.378-0.954,0.566-1.877,0.566-2.769l0.094-5.167c0-1.999-0.33-3.799-0.99-5.398
			c-0.188,0.123-0.488,0.2-0.896,0.23c-0.409,0.031-0.707,0.108-0.896,0.23c-3.113,2.215-5.755,3.622-7.925,4.222
			s-4.372,0.9-6.604,0.9c-3.459,0-6.485-0.815-9.08-2.445c-2.595-1.631-4.285-3.722-5.071-6.275
			c-0.786-2.553-1.179-4.567-1.179-6.044c0-2.43,0.109-4.113,0.33-5.052s0.818-2.368,1.795-4.291
			c0.977-1.922,1.757-3.444,2.339-4.567s1.779-2.453,3.591-3.991s3.804-2.968,5.977-4.291c1.921-0.554,3.961-1.299,6.118-2.237
			c2.158-0.938,3.631-1.453,4.418-1.546l0.283,0.646c1.386-0.8,2.646-1.2,3.779-1.2h0.095c0.787,0,1.182-0.6,1.182-1.799
			c0-3.938-0.188-8.098-0.566-12.48c-0.377-4.383-0.66-6.812-0.849-7.29c-0.188-0.477-0.66-0.884-1.415-1.223
			c-0.189-0.584-0.283-1.275-0.283-2.076c0-2.337,0.797-3.506,2.393-3.506c1.502-0.984,2.597-1.477,3.285-1.477
			c0.5,0,1.103,0.262,1.806,0.785c0.704,0.523,1.118,0.792,1.244,0.807c0.125,0.016,0.188,0.208,0.188,0.577
			c0,0.154-0.134,0.677-0.4,1.569c-0.268,0.893-0.418,1.753-0.448,2.583c-0.63,0.432-0.943,1.216-0.943,2.354l0.098,2.353
			c0,4.799,0.18,8.628,0.54,11.488s0.541,4.383,0.541,4.567c0,0.124-0.031,0.323-0.094,0.601c-0.063,0.276-0.095,0.492-0.095,0.646
			c0,0.585,0.25,1.185,0.75,1.8l0.7-0.277c0.124,0.432,0.576,0.738,1.354,0.923c1.495,0.308,2.164,0.931,2.007,1.869
			c-0.158,0.938-0.268,1.699-0.33,2.283h-0.378c-0.346,0-0.763,0.101-1.25,0.3c-0.487,0.2-0.81,0.3-0.967,0.3
			c-0.252,0-0.503-0.061-0.755-0.185c0-0.061-0.031-0.092-0.094-0.092c-0.347,0-0.52,3.015-0.52,9.043
			c0,3.691,0.299,7.844,0.896,12.457c0.503,0.677,0.912,1.276,1.227,1.8c-0.188,1.138-0.283,2.184-0.283,3.137
			c0,1.17,0.118,2.723,0.354,4.66c0.236,1.938,0.354,3.275,0.354,4.014l-0.142,1.154c0,0.245,0.148,0.43,0.448,0.553
			c0.298,0.123,0.448,0.246,0.448,0.369v0.093l-0.189,0.6L362.043,180.725z M350.375,138.001c-0.726-0.154-1.436-0.262-2.129-0.323
			l-2.035-0.23c-0.568,0-1.231,0.092-1.988,0.276l-1.041,0.277h-2.13c-4.228,1.292-7.753,3.822-10.577,7.589
			c-2.823,3.769-4.234,7.544-4.234,11.327c0,3.938,1.188,7.159,3.566,9.666c2.379,2.507,5.506,3.76,9.381,3.76
			c3.214,0,6.072-0.468,8.577-1.406c2.504-0.938,3.977-2.054,4.418-3.346c0.44-1.292,0.661-3.968,0.661-8.027
			c0-4.307-0.303-10.412-0.907-18.317c-0.915-0.307-1.436-0.491-1.562-0.554V138.001z"/>
		<path fill="#1DBBB6" d="M386.146,174.681c0,0.185-0.679,0.545-2.038,1.084c-1.359,0.537-2.213,0.808-2.56,0.808h-0.285
			c-0.315,0-0.719,0.061-1.208,0.185c-0.49,0.122-0.83,0.185-1.02,0.185c-0.601,0-1.138-0.208-1.612-0.623s-0.711-0.746-0.711-0.992
			c0-0.646,0.125-1.653,0.377-3.022c0.252-1.368,0.645-2.376,1.18-3.021c0.251-1.938,0.377-5.552,0.377-10.843l-0.377-16.748
			l0.094-2.906c0-0.308-0.259-0.877-0.778-1.707c-0.519-0.831-0.778-1.846-0.778-3.045c0-0.708,0.198-1.207,0.594-1.5
			c0.396-0.292,1.305-0.73,2.729-1.314l2.706-1.153c0.126-0.062,0.315-0.093,0.568-0.093c0.791,0,1.187,1.199,1.187,3.599
			c0,1.354-0.243,4.868-0.73,10.543c-0.488,5.675-0.731,10.281-0.731,13.818c0,1.999,0.055,3.883,0.165,5.651
			c0.11,1.77,0.228,3.114,0.354,4.037s0.409,1.77,0.85,2.538c0.88,1.6,1.32,3.045,1.32,4.337
			C385.942,174.558,386.053,174.619,386.146,174.681z M383.978,115.9c0.502,0.369,1.32,0.815,2.452,1.338
			c1.133,0.523,1.698,1.154,1.698,1.892c0,0.678-0.409,1.393-1.227,2.146c-0.817,0.754-1.635,1.131-2.452,1.131
			c-0.913,0-1.88-0.508-2.901-1.522c-1.022-1.016-1.533-1.6-1.533-1.754c0-0.554,0.432-1.229,1.297-2.029s1.706-1.2,2.524-1.2
			H383.978z"/>
		<path fill="#1DBBB6" d="M421.242,134.31c0.03,0.184,0.219,0.344,0.565,0.48c0.346,0.138,0.534,0.206,0.566,0.206h0.519
			c1.038,0,1.935,0.229,2.688,0.687c0.755,0.457,1.133,0.976,1.133,1.556c0,0.61-0.441,1.205-1.321,1.784l-0.565-0.595
			c-0.441,0.763-1.196,1.235-2.265,1.418l-0.283-0.553l-0.565,0.185c-1.385-0.615-2.8-0.923-4.246-0.923l-4.434,0.185
			c-0.63,0-1.573-0.062-2.83-0.185c-0.818,5.976-1.227,10.673-1.227,14.092c0,1.263,0.07,2.733,0.212,4.412s0.417,3.05,0.825,4.112
			c0.409,1.062,0.817,2.041,1.227,2.935c0.408,0.893,1.101,1.778,2.076,2.656c0.974,0.878,1.878,1.502,2.712,1.871
			c0.833,0.369,1.557,0.886,2.17,1.548s2.209,0.993,4.788,0.993h0.943c0.597,0.461,0.896,0.847,0.896,1.153
			c0,0.339-0.229,0.861-0.685,1.568c-0.456,0.708-0.818,1.308-1.085,1.8c-0.268,0.491-0.716,1.03-1.344,1.615h-0.189
			c-0.157,0-0.282-0.093-0.377-0.277c-1.102,0-2.075-0.123-2.925-0.37c0,0.062-0.031,0.093-0.094,0.093
			c-0.063,0-0.213-0.085-0.448-0.254c-0.236-0.17-0.465-0.301-0.685-0.393c-0.22-0.432-0.677-0.816-1.368-1.155
			c-1.415-0.492-2.729-1.216-3.938-2.171c-1.211-0.954-2.461-2.31-3.75-4.064c-1.29-1.755-2.099-3.372-2.43-4.851
			c-0.33-1.478-0.598-3.257-0.802-5.336c-0.204-2.078-0.307-4.303-0.307-6.675c0-4.003,0.299-8.406,0.896-13.21l-0.99-0.324
			l-0.283,0.601h-0.66l-0.189-0.601c-7.296-0.272-10.943-0.956-10.943-2.05c0-0.395,0.229-0.751,0.685-1.07
			c0.456-0.318,1.784-0.479,3.985-0.479h1.84l1.981-0.461c0.723-0.153,1.431-0.431,2.122-0.831c0.691-0.399,1.298-0.892,1.816-1.476
			s0.998-2.63,1.438-6.137c0.283-2.152,0.425-4.444,0.425-6.875v-1.892c0-0.584,0.22-1.414,0.66-2.491
			c0.44-1.076,0.982-1.922,1.628-2.537c0.644-0.615,1.108-0.923,1.392-0.923c0.628,0,1.289,0.115,1.98,0.346s1.085,0.393,1.18,0.484
			c0.095,0.093,0.204,0.331,0.33,0.715c0.125,0.386,0.283,0.686,0.472,0.9v0.185c0,0.123-0.118,0.215-0.354,0.276
			c-0.236,0.062-0.386,0.123-0.448,0.185c-0.063,0.062-0.118,0.123-0.165,0.185c-0.047,0.062-0.275,0.893-0.685,2.491
			c-0.408,1.6-0.754,3.2-1.037,4.799c-0.283,1.6-0.504,3.168-0.66,4.706c-0.158,1.538-0.236,3.061-0.236,4.567
			c0,2.153,0.095,3.368,0.283,3.646c0.188,0.276,0.455,0.415,0.802,0.415c0.157,0,0.558-0.1,1.203-0.3
			c0.644-0.2,1.233-0.3,1.769-0.3c0.283,0,0.519,0.03,0.708,0.092l0.565,1.153c0.188,0.062,0.44,0.093,0.755,0.093
			c0.346,0,1.015-0.208,2.005-0.623S420.518,134.433,421.242,134.31z"/>
	</g>
	<g>
		<path fill="#1DBBB6" d="M207.739,72.065c0,0.249-0.211,0.59-0.634,1.025c-0.423,0.436-0.713,0.824-0.869,1.166
			c-0.157,0.342-0.282,1.251-0.376,2.727c-0.094,1.477-0.141,3.66-0.141,6.55l0.188,6.294c0,0.342-0.141,0.637-0.423,0.886
			c-0.063,0.342-0.094,0.917-0.094,1.725c0,1.15,0.188,2.611,0.563,4.382l0.517,2.471l-0.094,2.284l0.094,2.004
			c-2.255,2.238-3.931,3.357-5.027,3.357c-0.157,0-0.455-0.109-0.893-0.326c-0.439-0.218-0.846-0.327-1.221-0.327h-0.282
			c-0.251-0.871-0.376-1.647-0.376-2.331c0-1.523,0.36-2.983,1.081-4.382c0.344-0.436,0.603-0.777,0.775-1.025
			c0.172-0.249,0.259-1.182,0.259-2.797c0-1.771-0.188-2.657-0.564-2.657c-0.063,0-0.258,0.062-0.587,0.187
			c-0.329,0.125-0.681,0.187-1.057,0.187h-0.376c-0.376,0.249-0.611,0.575-0.705,0.979c-0.376-0.031-2.428,0.668-6.155,2.098
			c-1.817,0.622-3.571,0.933-5.262,0.933c-1.849,0-3.508-0.24-4.98-0.723c-1.473-0.481-2.709-1.196-3.712-2.145
			c-1.002-0.948-1.652-1.655-1.95-2.121c-0.298-0.466-0.446-1.476-0.446-3.03l0.094-1.166v-0.373c0-3.107,2.436-6.371,7.306-9.79
			s9.421-5.485,13.649-6.201c1.127-0.187,2.004-0.38,2.631-0.583c0.626-0.202,1.151-0.536,1.574-1.002s0.634-1.539,0.634-3.217
			c0-5.532-2.945-9.292-8.833-11.282c-0.188-0.062-0.446-0.187-0.775-0.373c-0.329-0.187-0.619-0.28-0.869-0.28
			c-3.039,0-5.576,0.125-7.612,0.373c-1.127,1.275-2.381,1.912-3.759,1.912c-1.034,0-1.55-0.357-1.55-1.072
			c0-0.031,0.227-0.691,0.681-1.981c0.454-1.289,1.542-1.935,3.266-1.935c1.973-1.056,5.575-1.585,10.807-1.585
			c4.197,0,7.454,1.616,9.772,4.848c2.318,3.233,3.477,7.848,3.477,13.846v0.653c0.25,0.404,0.688,0.699,1.315,0.886
			c0.626,0.187,0.94,0.466,0.94,0.839V72.065z M198.483,88.615c1.973-2.641,2.96-5.003,2.96-7.086c0-1.274-0.322-2.658-0.963-4.149
			c-0.642-1.492-1.919-2.238-3.829-2.238c-3.696,0-6.704,0.917-9.021,2.75h-1.175c-4.824,2.642-7.236,5.439-7.236,8.392
			c0,2.083,0.994,3.831,2.984,5.245c1.989,1.415,4.299,2.121,6.93,2.121c0.688,0,2.004-0.295,3.947-0.886
			c1.941-0.59,3.743-1.694,5.403-3.31V88.615z"/>
		<path fill="#1DBBB6" d="M247.441,61.203c0,0.311-0.219,0.832-0.658,1.562c-0.438,0.73-0.736,1.415-0.893,2.051
			c-0.156,0.637-0.563,1.282-1.221,1.935h-1.176c-1.629-0.963-2.834-1.445-3.617-1.445c-0.564,0-1.488,0.327-2.771,0.979
			c-1.285,0.653-2.522,1.811-3.713,3.473c-1.19,1.663-1.957,2.977-2.302,3.939c-0.157,1.057-0.657,2.176-1.503,3.357v1.538
			c-0.596,1.523-0.847,2.634-0.752,3.333c0.094,0.699,0.141,1.235,0.141,1.608c0,0.404-0.031,0.73-0.094,0.979
			c-0.377,0.373-0.564,0.746-0.564,1.119c0,0.777,0.164,2.145,0.494,4.103c0.328,1.958,0.869,3.45,1.621,4.475v0.42
			c0,1.398-0.58,2.098-1.739,2.098l-0.939,0.933c-0.784,0.062-1.63,0.093-2.537,0.093c-1.159,0-2.178-0.156-3.054-0.466V97.1
			c0-0.839,0.258-2.066,0.775-3.683c0.516-1.616,0.774-2.844,0.774-3.683l0.282-10.956c0-8.515-0.471-16.021-1.41-22.517
			c-0.094-0.684-0.141-1.072-0.141-1.166c0-1.181,0.571-2.082,1.715-2.704c1.143-0.622,2.139-0.933,2.984-0.933
			c0.751,0,1.456,0.187,2.113,0.56c0.062,0.125,0.18,0.342,0.354,0.653c0.171,0.311,0.258,0.513,0.258,0.606v0.56
			c0,0.466-0.274,1.508-0.822,3.124c-0.549,1.616-0.822,3.667-0.822,6.154l0.094,5.734v0.839c0,0.466,0.423,0.792,1.27,0.979
			c1.314-2.89,2.889-5.167,4.721-6.83c1.833-1.663,4.096-2.867,6.79-3.613c2.693-0.746,4.4-1.119,5.121-1.119
			c0.814,0.56,1.222,1.072,1.222,1.539V61.203z"/>
		<path fill="#1DBBB6" d="M274.975,56.214c0.031,0.185,0.219,0.348,0.563,0.486c0.345,0.139,0.532,0.208,0.564,0.208h0.517
			c1.033,0,1.927,0.232,2.678,0.694c0.752,0.462,1.128,0.986,1.128,1.572c0,0.617-0.438,1.218-1.315,1.804l-0.563-0.602
			c-0.439,0.771-1.191,1.249-2.256,1.433l-0.282-0.559l-0.563,0.187c-1.379-0.622-2.788-0.933-4.229-0.933l-4.417,0.187
			c-0.627,0-1.566-0.062-2.818-0.187c-0.815,6.039-1.223,10.785-1.223,14.24c0,1.276,0.071,2.762,0.212,4.458
			c0.142,1.696,0.415,3.082,0.822,4.156s0.814,2.062,1.222,2.964c0.406,0.903,1.096,1.797,2.067,2.685
			c0.971,0.887,1.872,1.517,2.702,1.89c0.829,0.374,1.55,0.896,2.161,1.564c0.61,0.669,2.2,1.004,4.769,1.004h0.939
			c0.595,0.466,0.894,0.855,0.894,1.166c0,0.342-0.228,0.871-0.682,1.585c-0.454,0.715-0.815,1.321-1.081,1.818
			c-0.267,0.497-0.713,1.041-1.339,1.631h-0.188c-0.157,0-0.282-0.093-0.376-0.28c-1.097,0-2.067-0.125-2.913-0.374
			c0,0.062-0.032,0.093-0.094,0.093c-0.063,0-0.212-0.086-0.447-0.256c-0.234-0.172-0.462-0.304-0.681-0.397
			c-0.22-0.436-0.674-0.825-1.363-1.167c-1.409-0.498-2.717-1.229-3.923-2.193s-2.451-2.334-3.735-4.107
			c-1.285-1.773-2.091-3.407-2.42-4.901c-0.328-1.494-0.595-3.291-0.799-5.392c-0.203-2.1-0.305-4.348-0.305-6.744
			c0-4.045,0.297-8.495,0.893-13.349l-0.986-0.327l-0.282,0.606h-0.657l-0.188-0.606c-7.268-0.276-10.901-0.967-10.901-2.072
			c0-0.398,0.229-0.759,0.682-1.081c0.455-0.322,1.777-0.484,3.971-0.484h1.832l1.974-0.466c0.72-0.155,1.425-0.435,2.114-0.839
			c0.688-0.403,1.292-0.901,1.809-1.492c0.518-0.59,0.994-2.657,1.434-6.201c0.281-2.175,0.423-4.491,0.423-6.946v-1.911
			c0-0.59,0.219-1.429,0.657-2.518c0.438-1.088,0.979-1.942,1.621-2.564c0.643-0.621,1.104-0.932,1.387-0.932
			c0.626,0,1.283,0.117,1.973,0.35s1.081,0.396,1.175,0.49c0.095,0.093,0.204,0.334,0.329,0.722c0.125,0.389,0.281,0.692,0.47,0.909
			v0.187c0,0.125-0.117,0.218-0.353,0.28c-0.234,0.062-0.384,0.125-0.446,0.187c-0.063,0.062-0.117,0.125-0.164,0.187
			c-0.048,0.062-0.274,0.902-0.682,2.518c-0.407,1.616-0.751,3.232-1.034,4.848c-0.281,1.617-0.501,3.202-0.657,4.755
			c-0.157,1.555-0.235,3.093-0.235,4.615c0,2.176,0.095,3.403,0.282,3.683c0.188,0.28,0.454,0.419,0.799,0.419
			c0.157,0,0.556-0.101,1.198-0.303c0.642-0.202,1.229-0.303,1.762-0.303c0.282,0,0.518,0.031,0.705,0.093l0.563,1.166
			c0.188,0.062,0.438,0.093,0.752,0.093c0.345,0,1.01-0.21,1.997-0.629C273.4,56.611,274.254,56.339,274.975,56.214z"/>
		<path fill="#1DBBB6" d="M298.514,97.007c0,0.187-0.677,0.551-2.03,1.096c-1.354,0.543-2.204,0.816-2.55,0.816h-0.283
			c-0.314,0-0.717,0.062-1.204,0.187c-0.488,0.124-0.826,0.187-1.016,0.187c-0.598,0-1.133-0.21-1.605-0.629
			c-0.473-0.42-0.708-0.754-0.708-1.002c0-0.653,0.125-1.67,0.376-3.054c0.25-1.382,0.642-2.401,1.175-3.054
			c0.25-1.958,0.376-5.609,0.376-10.956l-0.376-16.923l0.094-2.937c0-0.311-0.259-0.886-0.775-1.725
			c-0.517-0.839-0.775-1.865-0.775-3.077c0-0.714,0.197-1.219,0.591-1.515c0.394-0.295,1.3-0.738,2.718-1.329l2.695-1.166
			c0.126-0.062,0.314-0.093,0.566-0.093c0.788,0,1.183,1.212,1.183,3.637c0,1.368-0.243,4.918-0.729,10.652
			c-0.486,5.734-0.729,10.389-0.729,13.963c0,2.021,0.055,3.924,0.165,5.711c0.109,1.788,0.227,3.146,0.352,4.079
			s0.407,1.788,0.847,2.564c0.876,1.617,1.315,3.077,1.315,4.382C298.31,96.883,298.42,96.945,298.514,97.007z M296.353,37.613
			c0.501,0.373,1.315,0.824,2.443,1.352c1.128,0.529,1.691,1.166,1.691,1.912c0,0.684-0.407,1.407-1.222,2.168
			c-0.814,0.762-1.629,1.142-2.443,1.142c-0.908,0-1.872-0.513-2.89-1.539c-1.018-1.025-1.526-1.616-1.526-1.771
			c0-0.56,0.43-1.243,1.292-2.051c0.861-0.808,1.698-1.212,2.514-1.212H296.353z"/>
		<path fill="#1DBBB6" d="M341.176,72.065c0,0.249-0.211,0.59-0.634,1.025c-0.423,0.436-0.713,0.824-0.869,1.166
			c-0.157,0.342-0.282,1.251-0.376,2.727c-0.094,1.477-0.141,3.66-0.141,6.55l0.188,6.294c0,0.342-0.141,0.637-0.423,0.886
			c-0.063,0.342-0.094,0.917-0.094,1.725c0,1.15,0.188,2.611,0.563,4.382l0.517,2.471l-0.094,2.284l0.094,2.004
			c-2.255,2.238-3.931,3.357-5.027,3.357c-0.156,0-0.454-0.109-0.893-0.326c-0.438-0.218-0.846-0.327-1.222-0.327h-0.281
			c-0.251-0.871-0.376-1.647-0.376-2.331c0-1.523,0.359-2.983,1.08-4.382c0.345-0.436,0.604-0.777,0.775-1.025
			c0.172-0.249,0.259-1.182,0.259-2.797c0-1.771-0.188-2.657-0.564-2.657c-0.062,0-0.258,0.062-0.587,0.187
			c-0.329,0.125-0.682,0.187-1.057,0.187h-0.376c-0.376,0.249-0.611,0.575-0.705,0.979c-0.376-0.031-2.428,0.668-6.155,2.098
			c-1.816,0.622-3.57,0.933-5.262,0.933c-1.849,0-3.509-0.24-4.98-0.723c-1.473-0.481-2.71-1.196-3.712-2.145
			c-1.003-0.948-1.652-1.655-1.95-2.121s-0.446-1.476-0.446-3.03l0.094-1.166v-0.373c0-3.107,2.436-6.371,7.307-9.79
			c4.87-3.419,9.42-5.485,13.648-6.201c1.128-0.187,2.005-0.38,2.632-0.583c0.626-0.202,1.15-0.536,1.574-1.002
			c0.423-0.466,0.634-1.539,0.634-3.217c0-5.532-2.944-9.292-8.833-11.282c-0.188-0.062-0.446-0.187-0.775-0.373
			c-0.329-0.187-0.619-0.28-0.869-0.28c-3.039,0-5.576,0.125-7.611,0.373c-1.128,1.275-2.381,1.912-3.759,1.912
			c-1.034,0-1.551-0.357-1.551-1.072c0-0.031,0.227-0.691,0.682-1.981c0.453-1.289,1.542-1.935,3.265-1.935
			c1.974-1.056,5.575-1.585,10.807-1.585c4.197,0,7.455,1.616,9.773,4.848c2.317,3.233,3.477,7.848,3.477,13.846v0.653
			c0.25,0.404,0.688,0.699,1.315,0.886c0.626,0.187,0.939,0.466,0.939,0.839V72.065z M331.92,88.615
			c1.974-2.641,2.96-5.003,2.96-7.086c0-1.274-0.321-2.658-0.963-4.149c-0.643-1.492-1.919-2.238-3.829-2.238
			c-3.696,0-6.703,0.917-9.021,2.75h-1.175c-4.823,2.642-7.235,5.439-7.235,8.392c0,2.083,0.994,3.831,2.983,5.245
			c1.989,1.415,4.3,2.121,6.931,2.121c0.688,0,2.004-0.295,3.946-0.886c1.942-0.59,3.743-1.694,5.403-3.31V88.615z"/>
		<path fill="#1DBBB6" d="M364.904,94.629c-0.282,0.963-0.525,1.57-0.729,1.818c-0.204,0.25-0.697,0.404-1.48,0.466
			c-0.375,0.373-0.721,0.56-1.033,0.56c-0.251,0-0.517-0.187-0.799-0.56c-0.407,0.404-0.939,0.746-1.598,1.026
			c-2.443-0.684-3.665-1.569-3.665-2.658v-0.093c0.501,0,0.752-0.45,0.752-1.352v-0.839l-0.094-1.539
			c0-0.217,0.188-0.948,0.563-2.191c0.471-3.294,0.705-7.754,0.705-13.38v-9.557l-0.094-3.59l0.094-3.077l-0.563-10.77l0.376-7.459
			l-0.376-9.65v-1.818c-0.407-1.056-0.611-2.098-0.611-3.124l0.188-2.004c0-0.217-0.126-0.513-0.376-0.886
			c0-1.679,0.273-3.007,0.822-3.986c0.548-0.979,1.222-1.732,2.021-2.261c0.799-0.528,1.589-0.793,2.372-0.793
			c1.347,0,2.521,1.306,3.524,3.917c-0.721,0.902-1.301,1.795-1.738,2.681c-0.439,0.886-0.658,2.184-0.658,3.893l0.188,5.361
			l-0.188,13.333l0.094,18.228l-0.188,20.746l0.094,0.839c0,0.498-0.126,0.824-0.376,0.979c0.47,0.404,0.775,1.36,0.916,2.867
			c0.142,1.508,0.454,2.634,0.94,3.38C364.473,93.883,364.778,94.381,364.904,94.629z"/>
	</g>
	<path id="P" fill="#1DBBB6" d="M138.985,200.755c0,0.623,0.062,1.322,0.188,2.099l0.188,1.165v0.652
		c0,0.498-0.094,0.816-0.282,0.957c-0.188,0.139-0.713,0.287-1.574,0.442c-0.862,0.155-3,0.94-3.814,1.251
		c-0.815,0.31-1.285,0.466-1.41,0.466c-0.157,0-0.501-0.109-1.034-0.326c-0.533-0.218-1.05-0.38-1.55-0.489
		c-0.501-0.108-0.752-0.272-0.752-0.489c0-0.188,0.29-0.598,0.869-1.236c0.58-0.637,0.87-1.312,0.87-2.027v-0.279
		c0.156-1.243,0.383-2.471,0.681-3.684 M131.365,199.256c0.297-1.212,0.633-112.692,0.633-114.743c0-1.212-0.055-2.494-0.165-3.846
		c-0.11-1.352-0.219-2.128-0.329-2.331c-0.11-0.202-0.313-0.466-0.611-0.792c-0.298-0.326-0.446-0.52-0.446-0.583v-0.093
		c0-0.093,0.359-0.933,1.081-2.518c0.188-1.709,0.282-3.9,0.282-6.573l-0.094-5.548l0.188-10.023c0-5.035-0.141-8.655-0.423-10.862
		c-0.282-2.207-0.423-3.357-0.423-3.45c0-0.279,0.047-0.629,0.141-1.049c0.094-0.419,0.141-0.707,0.141-0.862l-0.094-0.933
		c0-1.087,0.712-1.825,2.138-2.214c1.425-0.388,4.361-0.583,8.81-0.583c4.197,0,7.854,0.303,10.971,0.909
		c3.116,0.606,5.803,1.547,8.058,2.821c2.255,1.275,3.868,2.642,4.84,4.103c0.97,1.461,1.668,2.82,2.091,4.079
		s0.634,3.411,0.634,6.457c0,2.114-0.322,3.947-0.963,5.501c-0.643,1.555-1.793,3.629-3.454,6.224
		c-1.661,2.596-3.563,4.802-5.708,6.62c-2.146,1.818-4.448,3.28-6.907,4.382c-2.459,1.104-4.454,1.736-7.617,2.203
		c-2.349,0.342-3.939,0.855-4.769,1.539c-0.83,0.684-1.245,2.238-1.245,4.662c0,1.026,0.406,111.616,0.625,112.875
		c0.219,1.259,0.329,2.604,0.329,4.032l-0.094,2.098 M137.684,72.951c2.537-0.404,4.925-0.94,7.166-1.608
		c2.239-0.668,4.268-1.422,6.084-2.261c1.816-0.839,3.148-1.662,3.994-2.471c0.846-0.808,1.793-1.787,2.843-2.937
		c1.049-1.15,1.856-2.098,2.419-2.844c0.282-0.746,0.72-1.794,1.316-3.146c0.595-1.352,0.963-2.618,1.104-3.8
		c0.141-1.181,0.211-2.564,0.211-4.149c0-3.45-0.83-5.959-2.49-7.529c-1.661-1.569-3.579-3.061-5.756-4.476
		c-2.177-1.414-5.458-2.121-9.843-2.121h-3.289c-1.535,0-2.607,0.35-3.218,1.049s-0.916,1.935-0.916,3.707l0.375,7.272l-0.094,8.019
		v10.583C137.59,69.035,137.621,71.272,137.684,72.951z"/>
</g>
<g id="Guy">
	<circle id="Head" fill="#FFFFFF" cx="123.375" cy="115.875" r="14.877"/>
	<path id="Left_leg_1_" fill="#FFFFFF" d="M126.333,160.076l-10.5,37.917c0,0-28.333,12.583-12.75-13.667s18-29.104,18-29.104
		s0.167,1.437,2.167,1.437s2.75-0.5,3.083-0.75S126.333,160.076,126.333,160.076z"/>
	<path id="Left_arm" fill="#FFFFFF" d="M117.125,146.904l-6-1.404c0,0-2.5-0.875-1-3.25s4.375-4.25,5.25-4.375s1.75-1.5,4.875,0
		s3.125,1.75,4.375,2.875s1.708,1.917,2.542,1.292s0.75-0.541,0.333-1.458s-1.583-1.084-1.25-2.167s1.333-1.75,0.167-2
		s-0.416,0.251-1.083,0.917s-3.75,0.916-2.333-2.584s1.667-1.916,2.75-2.916s2.25-0.83,3.083-1.082s2.333-0.918,3.25-1.668
		s2,2.083,2.083,3.083s1,3.25,0.333,6.5s-1.917,14.249-9.417,14.833S118.25,146.059,117.125,146.904z"/>
	<path id="Right_arm_1" fill="#FFFFFF" d="M115,135.667c0,0-0.583-1.001,0.917-1.667s1.667-0.5,2.167-1.333s2.5,0.417,1.75,1.5
		s-4.17,2.417-4.5,1.5"/>
	<path id="Right_arm_2" fill="#FFFFFF" d="M106.5,143.667c-1.755,1.299-3.554,5.544-4.333,7.583
		c-0.495,1.294-0.75,3.501,3.917,3.917s11.75-1.637,11.75-1.637s-1.083-7.197-6.768-6.315
		C104.878,148.175,110.667,140.584,106.5,143.667z"/>
	<path id="Right_leg_1" fill="#FFFFFF" d="M106.333,173.991l-2.5-3.917c0,0-0.667-1.083,1.25-3.583s5.917-8.667,5.917-8.667
		s0.583-1.334,2.75-1.25s1.583,0.492,2.75-0.004s0.75,0,0.75,0L106.333,173.991z"/>
	<path id="Right_leg_2" fill="#FFFFFF" d="M119.833,189.491c0,0,1,2.417,1.75,0.917s2.5-4.584,2.5-4.584s0.167-2-0.417-2.583
		s-1.473-0.917-1.473-0.917L119.833,189.491z"/>
</g>
<g id="Moon">
	<path fill="#FFFFFF" d="M28.375,6.173C28.375,6.173-2.75,19,9,50.5c0,0,11.125,27.625,44.25,16.125c0,0-22.523-2.901-30.75-21.625
		C18.875,36.75,16.75,20.472,28.375,6.173z"/>
</g>
<g id="Notes">
	<path id="Eighth" fill="#FFFFFF" d="M97.875,54l2,9.25c0,0-0.375,2.75-2,3.375s-3,0.75-4.125-1.75s3.604-4.291,4.625-2.125
		S96,50.375,96,50.375s0.25-1.25,1.25,0s4,3,4,3s3.75,3.125,1.75,6.5c0,0-0.25-3.25-1.75-4.375S97.5,52.266,97.875,54z"/>
	<path id="Sixteenths" fill="#FFFFFF" d="M81.25,65.125c0,0-0.375,14.125-0.5,13.625s-1.875-1.875-3.5-1.125
		s-3.125,2.625-0.375,4.75S82,80.75,82,80.75L82.125,71l6.375,2.25c0,0,0.125,8.125-0.25,7.5s-3.125-1-4.25,0.125s-2,3.625,1.5,4.5
		s4.25-3,4.25-3v-13.75L81.25,65.125z M88.375,71.5l-6.125-2.247v-1.815l6.125,2.375V71.5z"/>
	<path id="Quarter" fill="#FFFFFF" d="M100.875,96.188l0.688-11.625c0,0,2.875,2.125,4.5,0s-0.312-4-1.062-4.062
		s-2.438-0.438-3.625,1s-0.875,1.062-0.938,2s-0.875,12.25-0.875,12.25S99.875,97.375,100.875,96.188z"/>
</g>
<g id="Bug">
	<path fill="none" stroke="#FFFFFF" stroke-width="2" stroke-linecap="round" stroke-miterlimit="10" d="M14.125,140.5
		c0.862,0.157,1.643,0.471,2.443,0.841c0.426,0.197,0.832,0.485,1.307,0.472"/>
	<path fill="none" stroke="#FFFFFF" stroke-width="2" stroke-linecap="round" stroke-miterlimit="10" d="M26.938,144.875
		c0.765-0.236,1.526-0.533,2.139-1.071c0.435-0.382,0.698-0.75,1.236-0.991"/>
	<path fill="none" stroke="#FFFFFF" stroke-width="2" stroke-linecap="round" stroke-miterlimit="10" d="M38.438,138.75
		c0.948-0.526,1.991-1.213,2.856-1.887c0.708-0.553,1.398-1.078,2.394-0.551"/>
	<path fill="none" stroke="#FFFFFF" stroke-width="2" stroke-linecap="round" stroke-miterlimit="10" d="M48.688,131.75
		c0.186-0.711,0.711-0.838,1.25-1.148c0.566-0.326,1.039-0.766,1.688-0.977"/>
	<path fill="none" stroke="#FFFFFF" stroke-width="2" stroke-linecap="round" stroke-miterlimit="10" d="M39.125,130.125
		c0.956-0.035,1.403,0.36,2.192,0.768c0.271,0.141,0.607,0.075,0.871,0.295"/>
	<path fill="none" stroke="#FFFFFF" stroke-width="2" stroke-linecap="round" stroke-miterlimit="10" d="M41.062,125.125
		c1.417-0.366,1.205-2.845,2.75-2.688"/>
	<path fill="none" stroke="#FFFFFF" stroke-width="2" stroke-linecap="round" stroke-miterlimit="10" d="M48.062,123.312
		C48.906,123.748,49.5,124.179,50,125"/>
	<path fill="#FFFFFF" stroke="#FFFFFF" stroke-width="2" stroke-linecap="round" stroke-miterlimit="10" d="M55.5,127.562
		c0.607-0.058,0.872-0.565,1.272-0.999c0.292-0.315,0.814-0.576,0.79-1.063"/>
	<path fill="none" stroke="#FFFFFF" stroke-linecap="round" stroke-miterlimit="10" d="M55.5,119.062
		c0.223,0.332,0.845,0.727,1.25,0.75"/>
	<path fill="none" stroke="#FFFFFF" stroke-linecap="round" stroke-miterlimit="10" d="M55.75,121.75
		c0.332-0.004,0.746-0.271,1.125-0.312"/>
	<path fill="none" stroke="#FFFFFF" stroke-linecap="round" stroke-miterlimit="10" d="M64.812,122.375
		c0.183,0.397,0.388,0.707,0.75,0.938"/>
	<path fill="none" stroke="#FFFFFF" stroke-linecap="round" stroke-miterlimit="10" d="M65.938,121.5
		c0.61,0,0.836-0.006,1.312-0.375"/>
	<path fill="none" stroke="#FFFFFF" stroke-linecap="round" stroke-miterlimit="10" d="M58.625,118.75c0.274-0.7-1.438-1.699-2-2
		c-0.871-0.467-1.638-0.81-2.688-0.688c-0.964,0.112-1.454,1.464-1.549,2.355c-0.099,0.926,0.229,1.328,0.893,1.888
		c0.589,0.496,0.421,0.517,0.155,1.237c-0.204,0.553-0.317,1.114-0.312,1.706c0.008,0.873,0.021,2.158,1,2.313
		c1.539,0.245,1.954-1.595,3.188-2.062"/>
	<path fill="none" stroke="#FFFFFF" stroke-linecap="round" stroke-miterlimit="10" d="M62.688,120.688
		c1.728-0.963,3.463-2.596,5.686-1.991c1.08,0.294,1.698,1.276,1.751,2.304c0.048,0.936-0.138,2.101-1,2.562
		c-0.277,0.148-0.755,0.252-0.875-0.125"/>
	<path fill="none" stroke="#FFFFFF" stroke-linecap="round" stroke-miterlimit="10" d="M63.312,124.625
		c-0.067,0.489,0.525,0.809,0.764,1.167c0.259,0.39,0.384,0.832,0.67,1.192c0.563,0.71,1.552,1.219,2.469,1.279
		c0.639,0.043,0.707-0.109,1.144-0.529c0.496-0.477,0.673-0.541,0.766-1.235c0.067-0.505,0.15-1.155-0.017-1.621
		c-0.147-0.409-0.653-0.667-0.733-1.128"/>
	<path fill="#FFFFFF" stroke="#FFFFFF" stroke-linecap="round" stroke-miterlimit="10" d="M58.312,119.812
		c0,0-0.125-1.744,2.938-1.247s2.562,4.614,1,5.212S57,124.25,58.312,119.812z"/>
	<g>
	</g>
	<g>
	</g>
	<g>
	</g>
	<g>
	</g>
	<g>
	</g>
	<g>
	</g>
</g>
</svg>
